<?xml version="1.0" encoding="UTF-8" standalone="no"?>
<!DOCTYPE svg PUBLIC "-//W3C//DTD SVG 1.1//EN" "http://www.w3.org/Graphics/SVG/1.1/DTD/svg11.dtd">
<svg version="1.1" xmlns="http://www.w3.org/2000/svg" xmlns:dc="http://purl.org/dc/elements/1.1/" xmlns:xl="http://www.w3.org/1999/xlink" viewBox="52 46 103 104" width="103" height="104">
  <defs/>
  <metadata> Produced by OmniGraffle 7.18.3\n2021-12-05 03:36:44 +0000</metadata>
  <g id="Canvas_1" stroke-dasharray="none" fill-opacity="1" stroke-opacity="1" fill="none" stroke="none">
    <title>Canvas 1</title>
    <g id="Canvas_1_Layer_1">
      <title>Layer 1</title>
      <g id="Group_2">
        <title>Canvas_1</title>
        <g id="Group_3">
          <title>Canvas_1_Layer_1</title>
          <g id="Group_4">
            <title>Graphic_194</title>
            <g id="Graphic_5">
              <path d="M 79.19642 102.5112 L 73.37998 101.35617 L 76.69437 122.28243 C 76.69437 122.28243 92.81189 130.00527 110.73664 127.16627 C 128.6614 124.32727 141.60459 112.00166 141.60459 112.00166 L 138.2001 90.50663 L 106.9128 108.013 L 88.59627 104.37651 C 88.34525 104.8825 88.01022 105.33884 87.60988 105.72932 C 87.82101 108.10124 89.01703 117.99341 89.03008 119.23668 C 89.03666 119.84916 88.75446 120.42105 88.26515 120.90385 L 86.20916 113.93213 L 86.16191 122.05467 C 85.57119 122.22441 84.91627 122.32205 84.22886 122.33036 C 81.55972 122.35797 79.38193 121.01772 79.36365 119.33748 C 79.34997 118.04554 80.41913 107.37713 80.51676 105.55662 C 79.76307 104.74859 79.27599 103.68705 79.19642 102.5112 Z M 100.51536 86.20071 C 101.38844 86.52461 102.51445 86.63068 103.70653 86.44187 C 106.1759 86.05076 107.99022 84.54447 107.75792 83.07791 C 107.52566 81.61135 105.33467 80.73943 102.8653 81.13054 C 101.69205 81.31637 100.66933 81.75362 99.94002 82.31811 C 96.18836 82.91841 84.15012 89.47125 83.86445 97.2171 C 82.23243 97.30901 80.81556 98.1886 79.98078 99.47879 L 53.95401 94.31276 L 100.6081 68.20675 L 153.04599 78.61813 L 106.39174 104.72314 L 89.02966 101.27678 C 88.84633 100.26667 88.35813 99.36479 87.66274 98.6684 C 87.30182 93.82443 96.84357 86.79242 100.51536 86.20071 Z" fill="#666"/>
            </g>
          </g>
        </g>
      </g>
    </g>
  </g>
</svg>
