<?xml version="1.0" encoding="UTF-8" standalone="no"?>
<!DOCTYPE svg PUBLIC "-//W3C//DTD SVG 1.1//EN" "http://www.w3.org/Graphics/SVG/1.1/DTD/svg11.dtd">
<svg version="1.1" xmlns="http://www.w3.org/2000/svg" xmlns:dc="http://purl.org/dc/elements/1.1/" xmlns:xl="http://www.w3.org/1999/xlink" viewBox="52 46 103 104" width="103" height="104">
  <defs/>
  <metadata> Produced by OmniGraffle 7.18.3\n2021-12-05 03:39:03 +0000</metadata>
  <g id="Canvas_1" stroke-dasharray="none" fill-opacity="1" stroke-opacity="1" fill="none" stroke="none">
    <title>Canvas 1</title>
    <g id="Canvas_1_Layer_1">
      <title>Layer 1</title>
      <g id="Group_374">
        <g id="Graphic_384">
          <path d="M 109.99162 126.6538 C 108.93524 126.8932 108.27259 127.94342 108.51199 128.99973 L 111.16665 140.7187 C 111.4081 141.77234 112.45695 142.43155 113.51135 142.19283 C 114.56568 141.9541 115.22763 140.90733 114.99235 139.85234 L 112.3377 128.13338 C 112.22246 127.62577 111.91103 127.18538 111.47132 126.90755 C 111.03094 126.63042 110.49862 126.53918 109.99169 126.65375 Z" fill="#666"/>
        </g>
        <g id="Graphic_383">
          <path d="M 94.65937 67.86933 C 94.89878 68.92571 95.94899 69.58837 97.0053 69.34965 C 97.51291 69.234405 97.9533 68.922974 98.23113 68.48327 C 98.50826 68.042884 98.60019 67.51125 98.48493 67.00364 L 95.83028 55.27432 C 95.58882 54.21999 94.53997 53.560095 93.48558 53.798816 C 92.43057 54.037536 91.76793 55.085 92.00458 56.14001 Z" fill="#666"/>
        </g>
        <g id="Graphic_382">
          <path d="M 120.51751 121.94577 C 120.09358 122.2469 119.80685 122.70445 119.71973 123.21755 C 119.6333 123.73066 119.75403 124.25748 120.05586 124.6814 L 127.02114 134.47009 L 127.02045 134.47009 C 127.64947 135.35155 128.87328 135.55734 129.75535 134.92968 C 130.6375 134.30203 130.84398 133.07826 130.2177 132.19548 L 123.25241 122.4068 C 122.62476 121.52465 121.40029 121.31817 120.51751 121.94583 Z" fill="#666"/>
        </g>
        <g id="Graphic_381">
          <path d="M 83.73837 73.6029 C 84.36602 74.48642 85.59049 74.69358 86.47397 74.06593 C 86.89791 73.764795 87.18464 73.30725 87.27176 72.79414 C 87.35887 72.28104 87.23814 71.7549 86.93701 71.33099 L 79.96893 61.52298 L 79.96824 61.52298 C 79.339215 60.64426 78.11822 60.44052 77.23737 61.06612 C 76.35653 61.69172 76.14738 62.9121 76.76954 63.79558 Z" fill="#666"/>
        </g>
        <g id="Graphic_380">
          <path d="M 140.43486 124.26027 C 140.7367 123.83634 140.85741 123.3102 140.771 122.79712 C 140.68456 122.28401 140.39783 121.82648 139.9739 121.52465 L 130.17485 114.55867 C 129.29202 113.93101 128.06756 114.13749 127.43994 115.021 C 126.8116 115.90384 127.01877 117.12829 127.9016 117.75591 L 137.70064 124.72189 C 138.58347 125.34955 139.80723 125.14307 140.43485 124.26024 Z" fill="#666"/>
        </g>
        <g id="Graphic_379">
          <path d="M 67.024086 74.47567 L 76.82314 81.44165 C 77.705965 82.06725 78.92902 81.86009 79.55593 80.97794 C 80.1829 80.0958 79.97711 78.87277 79.09633 78.24444 L 69.297284 71.27846 C 68.414455 70.65286 67.19211 70.86071 66.56501 71.74217 C 65.93804 72.624315 66.14315 73.846645 67.02393 74.47567 Z" fill="#666"/>
        </g>
        <g id="Graphic_378">
          <path d="M 147.70324 108.02013 C 147.81848 107.51252 147.72656 106.9802 147.44944 106.5405 C 147.17163 106.10011 146.73124 105.78869 146.22361 105.67344 L 134.49359 103.01879 C 133.43652 102.77938 132.3863 103.44204 132.14695 104.49842 C 131.90823 105.5548 132.57088 106.6057 133.62726 106.84435 L 145.35729 109.49971 C 145.8649 109.61495 146.39722 109.52303 146.83692 109.2459 C 147.27662 108.9681 147.58804 108.527 147.7033 108.02008 Z" fill="#666"/>
        </g>
        <g id="Graphic_377">
          <path d="M 60.77423 90.32948 L 72.504256 92.99168 C 73.55995 93.22971 74.60873 92.56843 74.84826 91.51273 C 75.08766 90.45772 74.42777 89.40826 73.372755 89.1668 L 61.64273 86.5046 C 60.58772 86.26656 59.53896 86.92853 59.29873 87.98354 C 59.05932 89.03855 59.7199 90.08872 60.77423 90.32948 Z" fill="#666"/>
        </g>
        <g id="Graphic_376">
          <path d="M 98.41385 109.27397 L 99.99568 107.69213 C 101.52469 106.32844 102.55638 104.49556 102.92955 102.48152 C 102.95562 102.16873 102.93504 101.85387 102.86987 101.54655 C 102.29297 101.16378 101.75656 100.7234 101.26814 100.23224 C 99.32417 98.38696 98.31373 95.76515 98.51673 93.09206 C 98.96123 89.74112 100.57186 86.6529 103.0653 84.37 L 120.19858 67.237954 C 122.48148 64.74451 125.5697 63.13384 128.92064 62.68938 C 131.5939 62.48634 134.21554 63.49677 136.06152 65.44079 C 138.00549 67.28607 139.01593 69.90841 138.81293 72.580975 C 138.36844 75.93261 136.7578 79.020135 134.26436 81.30303 L 121.5109 94.05579 C 122.70585 97.23322 123.18877 100.63491 122.92399 104.01938 C 122.88969 104.46937 122.84099 104.91731 122.782 105.36457 C 123.00013 105.15877 123.21827 104.95161 123.43297 104.73691 L 140.56625 87.60486 C 144.83982 83.33129 147.30657 78.3725 147.69888 73.26479 L 147.69888 73.2641 C 148.10292 67.998 146.1486 62.823736 142.36341 59.13862 C 138.67847 55.354114 133.50421 53.39978 128.2374 53.80315 C 123.12829 54.196213 118.1695 56.66221 113.89592 60.935784 L 96.76335 78.06836 C 92.48977 82.34193 90.02302 87.30073 89.63072 92.40843 L 89.63003 92.40843 C 89.22599 97.67524 91.18099 102.8495 94.9662 106.53392 C 96.00544 107.57727 97.1627 108.4965 98.4139 109.27374 Z" fill="#666"/>
        </g>
        <g id="Graphic_375">
          <path d="M 112.03393 89.46725 C 110.994 88.42389 109.83674 87.50466 108.58554 86.72742 L 107.0037 88.30926 C 105.47538 89.67295 104.443 91.50583 104.06984 93.51987 C 104.0472 93.80523 104.0616 94.09265 104.11305 94.3739 L 104.12746 94.45347 C 104.70505 94.83693 105.24284 95.27731 105.73193 95.76915 C 107.6759 97.61443 108.68634 100.23677 108.48334 102.90934 C 108.03814 106.26027 106.42821 109.3485 103.93476 111.63139 L 86.80148 128.76344 C 84.51859 131.25688 81.43037 132.86755 78.07873 133.31201 C 75.40617 133.51505 72.78383 132.50462 70.93855 130.5606 C 68.99458 128.71532 67.98413 126.09298 68.187135 123.42042 C 68.63163 120.06878 70.242265 116.98126 72.73571 114.69837 L 85.48707 101.94771 C 84.29348 98.76887 83.81193 95.36719 84.07603 91.98131 C 84.11033 91.53132 84.15903 91.08338 84.21802 90.63612 C 83.99988 90.84192 83.78174 91.04908 83.56705 91.26378 L 66.43377 108.39636 C 62.16019 112.66993 59.69344 117.62872 59.30043 122.73643 C 58.896396 128.00324 60.851394 133.1782 64.6359 136.86244 C 68.32084 140.64695 73.4951 142.60128 78.76191 142.1979 C 83.87102 141.80485 88.82981 139.33885 93.10339 135.06527 L 110.23667 117.93322 C 114.51024 113.65965 116.977 108.70086 117.3693 103.59315 L 117.3693 103.59247 C 117.77334 98.32566 115.81902 93.1514 112.03383 89.46698 Z" fill="#666"/>
        </g>
      </g>
    </g>
  </g>
</svg>
