<?xml version="1.0" encoding="UTF-8" standalone="no"?>
<!DOCTYPE svg PUBLIC "-//W3C//DTD SVG 1.1//EN" "http://www.w3.org/Graphics/SVG/1.1/DTD/svg11.dtd">
<svg version="1.1" xmlns="http://www.w3.org/2000/svg" xmlns:dc="http://purl.org/dc/elements/1.1/" xmlns:xl="http://www.w3.org/1999/xlink" viewBox="52 46 103 104" width="103" height="104">
  <defs>
    <linearGradient x1="0" x2="1" id="Gradient" gradientUnits="userSpaceOnUse">
      <stop offset="0" stop-color="#ff914d"/>
      <stop offset="1" stop-color="#dead26"/>
    </linearGradient>
    <linearGradient id="Obj_Gradient" xl:href="#Gradient" gradientTransform="translate(103.5 48.5) rotate(90) scale(99)"/>
  </defs>
  <metadata> Produced by OmniGraffle 7.18.3\n2021-12-05 01:03:49 +0000</metadata>
  <g id="Canvas_1" stroke-dasharray="none" fill-opacity="1" stroke-opacity="1" fill="none" stroke="none">
    <title>Canvas 1</title>
    <g id="Canvas_1_Layer_1">
      <title>Layer 1</title>
      <g id="Group_127">
        <g id="Graphic_128">
          <path d="M 132.30652 108.40354 L 147.62774 134.94853 C 147.82723 135.29458 147.80498 135.72579 147.56943 136.0496 C 147.33464 136.37339 146.93104 136.52839 146.53972 136.44475 L 132.91346 133.5459 L 128.6082 146.80012 C 128.4839 147.1807 128.1486 147.45232 127.75037 147.49453 C 127.35292 147.53596 126.96773 147.33954 126.76824 146.99348 L 111.77231 121.01224 C 112.47131 120.39994 113.09742 119.70862 113.63682 118.95212 L 114.56908 117.67306 L 116.07604 118.16106 L 116.0768 118.16106 C 117.339 118.58 118.6602 118.79176 119.99079 118.79023 C 122.93717 118.78255 125.78692 117.7375 128.03894 115.83854 C 130.29175 113.93872 131.80246 111.3062 132.30669 108.40342 Z M 60.45984 136.44333 L 74.0861 133.54448 L 78.392145 146.79792 L 78.392145 146.79869 C 78.51568 147.17926 78.85174 147.45088 79.24921 147.4923 C 79.64742 147.5345 80.032615 147.33808 80.232105 146.99203 L 95.22804 121.01078 C 94.52904 120.39849 93.90293 119.70716 93.36276 118.95067 L 92.4305 117.6716 L 90.92354 118.1596 C 89.66135 118.57854 88.33937 118.79031 87.00956 118.78878 C 84.06318 118.7811 81.21343 117.73605 78.96141 115.83708 C 76.7086 113.93727 75.19789 111.30475 74.69307 108.40197 L 59.37264 134.94696 C 59.172386 135.293 59.1954 135.72422 59.43019 136.04803 C 59.66574 136.37182 60.06934 136.52682 60.45989 136.44318 Z M 73.37091 85.02297 C 73.98627 84.18125 73.98627 83.03809 73.37091 82.19621 L 71.12655 79.12705 L 71.12732 79.12705 C 69.78457 77.290925 69.40629 74.92315 70.10912 72.76011 C 70.81119 70.597065 72.51004 68.90368 74.67524 68.20774 L 78.29458 67.04376 C 79.28669 66.72457 79.95884 65.79923 79.955755 64.75638 L 79.94425 60.95456 C 79.93734 58.68113 81.02306 56.54185 82.86294 55.205175 C 84.7029 53.868556 87.07234 53.49719 89.23303 54.20617 L 92.8455 55.39164 C 93.83607 55.71696 94.92329 55.36402 95.53417 54.51847 L 97.75928 51.43635 L 97.75928 51.435584 C 99.09052 49.59256 101.22581 48.5 103.50022 48.5 C 105.77464 48.5 107.90979 49.59262 109.24116 51.435584 L 111.46627 54.5177 L 111.46627 54.51847 C 112.07627 55.364024 113.16428 55.71698 114.15495 55.39164 L 117.76742 54.20617 C 119.92732 53.49719 122.29739 53.868556 124.13751 55.205175 C 125.9767 56.541794 127.06249 58.68093 127.05542 60.95456 L 127.0439 64.75638 C 127.04084 65.79913 127.71297 66.72457 128.70585 67.04376 L 132.32519 68.20774 C 134.4898 68.90368 136.1885 70.597065 136.8913 72.76011 C 137.59414 74.92315 137.2151 77.29165 135.87311 79.12705 L 133.62875 82.19621 C 133.01339 83.03793 133.01339 84.18109 133.62875 85.02297 L 135.87311 88.09213 C 137.2151 89.92749 137.59414 92.29603 136.8913 94.45907 C 136.18847 96.62133 134.4896 98.3155 132.32519 99.01144 L 128.70585 100.17542 C 127.71297 100.49461 127.04082 101.41919 127.04467 102.4628 L 127.05618 106.26462 L 127.05541 106.26385 C 127.06232 108.53807 125.9766 110.67735 124.13751 112.01383 C 122.29755 113.35045 119.9281 113.72181 117.76742 113.01283 L 114.15495 111.8266 C 113.16437 111.50128 112.07637 111.85499 111.46627 112.70053 L 109.24116 115.78265 C 107.90992 117.62644 105.77464 118.71902 103.50022 118.71902 C 101.22581 118.71902 99.09066 117.6264 97.75928 115.78265 L 95.53417 112.70053 C 94.9234 111.85498 93.83617 111.50126 92.84549 111.8266 L 89.23303 113.01207 L 89.23303 113.01283 C 87.07234 113.72181 84.70305 113.35045 82.86294 112.01383 C 81.02298 110.67721 79.93717 108.53807 79.94424 106.26386 L 79.95575 102.46203 C 79.95882 101.41929 79.28669 100.49463 78.29458 100.17544 L 74.67524 99.01146 C 72.510035 98.31552 70.81115 96.62135 70.10912 94.45909 C 69.40629 92.29605 69.78533 89.92755 71.127315 88.09215 Z M 81.56246 83.60963 C 81.56246 89.42717 83.8736 95.00763 87.98774 99.12118 C 92.10188 103.23532 97.68175 105.54647 103.50008 105.54647 C 109.31841 105.54647 114.89809 103.23532 119.01242 99.12118 C 123.12578 95.00783 125.43771 89.42717 125.43771 83.60963 C 125.43771 77.7913 123.12578 72.21163 119.01242 68.09729 C 114.89828 63.98315 109.31841 61.672005 103.50008 61.672005 C 97.68175 61.672005 92.10208 63.98315 87.98774 68.09729 C 83.8736 72.21143 81.56246 77.7913 81.56246 83.60963 Z M 103.4993 100.1263 C 107.87979 100.1263 112.08075 98.38608 115.17819 95.28852 C 118.27563 92.19097 120.01518 87.99012 120.01518 83.60963 C 120.01518 79.22914 118.27573 75.02818 115.17819 71.93074 C 112.08055 68.8331 107.87979 67.092966 103.4993 67.092966 C 99.1188 67.092966 94.91784 68.83318 91.82041 71.93074 C 88.72277 75.02759 86.98263 79.22835 86.98263 83.60884 C 86.98724 87.98855 88.72898 92.18637 91.82571 95.28322 C 94.92177 98.37928 99.12038 100.12099 103.4993 100.1263 Z" fill="url(#Obj_Gradient)"/>
        </g>
      </g>
    </g>
  </g>
</svg>
