<?xml version="1.0" encoding="UTF-8" standalone="no"?>
<!DOCTYPE svg PUBLIC "-//W3C//DTD SVG 1.1//EN" "http://www.w3.org/Graphics/SVG/1.1/DTD/svg11.dtd">
<svg version="1.1" xmlns="http://www.w3.org/2000/svg" xmlns:dc="http://purl.org/dc/elements/1.1/" xmlns:xl="http://www.w3.org/1999/xlink" viewBox="52 46 103 104" width="103" height="104">
  <defs>
    <linearGradient x1="0" x2="1" id="Gradient" gradientUnits="userSpaceOnUse">
      <stop offset="0" stop-color="#ffa35f"/>
      <stop offset="1" stop-color="#e6ba31"/>
    </linearGradient>
    <linearGradient id="Obj_Gradient" xl:href="#Gradient" gradientTransform="translate(103.5 54.26174) rotate(90) scale(92.73826)"/>
    <linearGradient id="Obj_Gradient_2" xl:href="#Gradient" gradientTransform="translate(78.17785 49) rotate(90) scale(16.44295)"/>
    <linearGradient id="Obj_Gradient_3" xl:href="#Gradient" gradientTransform="translate(128.8228 49) rotate(90) scale(16.44295)"/>
    <linearGradient id="Obj_Gradient_4" xl:href="#Gradient" gradientTransform="translate(103.17114 49) rotate(90) scale(16.44295)"/>
    <linearGradient id="Obj_Gradient_5" xl:href="#Gradient" gradientTransform="translate(115.78663 82.741015) rotate(90) scale(12.004405)"/>
    <linearGradient id="Obj_Gradient_6" xl:href="#Gradient" gradientTransform="translate(104.12285 109.22973) rotate(90) scale(9.290948)"/>
    <linearGradient id="Obj_Gradient_7" xl:href="#Gradient" gradientTransform="translate(91.20041 82.741015) rotate(90) scale(12.004405)"/>
  </defs>
  <metadata> Produced by OmniGraffle 7.18.3\n2021-12-05 00:53:44 +0000</metadata>
  <g id="Canvas_1" stroke-dasharray="none" fill-opacity="1" stroke-opacity="1" fill="none" stroke="none">
    <title>Canvas 1</title>
    <g id="Canvas_1_Layer_1">
      <title>Layer 1</title>
      <g id="Group_97">
        <g id="Group_98">
          <g id="Graphic_105">
            <path d="M 141.28985 54.26174 L 65.71015 54.26174 C 60.97194 54.26174 57.130865 58.10281 57.130865 62.84101 L 57.130865 138.42073 C 57.130865 143.15893 60.97194 147 65.71015 147 L 141.28985 147 C 146.02807 147 149.86913 143.15893 149.86913 138.42073 L 149.86913 62.84101 C 149.86913 58.10281 146.02807 54.26174 141.28985 54.26174 Z M 143.29194 133.06493 C 143.29194 137.12896 139.99744 140.42348 135.93338 140.42348 L 71.06594 140.42348 C 67.0019 140.42283 63.70805 137.1283 63.70805 133.06493 L 63.70805 68.19681 C 63.70805 64.13277 67.0019 60.83892 71.06594 60.83892 L 135.93472 60.83892 C 139.99744 60.83892 143.29194 64.13277 143.29194 68.19681 Z" fill="url(#Obj_Gradient)"/>
          </g>
          <g id="Graphic_104">
            <path d="M 82.78188 60.59228 C 82.78188 63.288265 80.77518 65.44295 78.29953 65.44295 L 78.05619 65.44295 C 75.58052 65.44295 73.57382 63.288265 73.57382 60.59228 L 73.57382 53.880916 C 73.57382 51.18559 75.58052 49 78.05619 49 L 78.29953 49 C 80.77518 49 82.78188 51.18559 82.78188 53.880916 Z" fill="url(#Obj_Gradient_2)"/>
          </g>
          <g id="Graphic_103">
            <path d="M 133.42615 60.59228 C 133.42615 63.288265 131.41882 65.44295 128.94448 65.44295 L 128.7018 65.44295 C 126.22547 65.44295 124.21944 63.288265 124.21944 60.59228 L 124.21944 53.880916 C 124.21812 51.18559 126.22547 49 128.69983 49 L 128.9425 49 C 131.41882 49 133.42615 51.18559 133.42615 53.880916 Z" fill="url(#Obj_Gradient_3)"/>
          </g>
          <g id="Graphic_102">
            <path d="M 107.77517 60.59228 C 107.77517 63.288265 105.76847 65.44295 103.29349 65.44295 L 103.04947 65.44295 C 100.57383 65.44295 98.56711 63.288265 98.56711 60.59228 L 98.56711 53.880916 C 98.56711 51.18559 100.57383 49 103.0488 49 L 103.29282 49 C 105.76847 49 107.77517 51.18559 107.77517 53.880916 Z" fill="url(#Obj_Gradient_4)"/>
          </g>
          <g id="Graphic_101">
            <circle cx="115.78663" cy="88.74322" r="6.002209014609" fill="url(#Obj_Gradient_5)"/>
          </g>
          <g id="Graphic_100">
            <path d="M 86.44396 112.68447 C 86.56249 112.77069 94.41594 118.52068 104.81466 118.52068 C 110.05173 118.52068 115.93534 117.06163 121.80174 112.68662 L 119.2263 109.22973 C 104.32759 120.3418 89.64224 109.68878 89.02369 109.22973 Z" fill="url(#Obj_Gradient_6)"/>
          </g>
          <g id="Graphic_99">
            <circle cx="91.20041" cy="88.74322" r="6.00220901460904" fill="url(#Obj_Gradient_7)"/>
          </g>
        </g>
      </g>
    </g>
  </g>
</svg>
