<?xml version="1.0" encoding="UTF-8" standalone="no"?>
<!DOCTYPE svg PUBLIC "-//W3C//DTD SVG 1.1//EN" "http://www.w3.org/Graphics/SVG/1.1/DTD/svg11.dtd">
<svg version="1.1" xmlns="http://www.w3.org/2000/svg" xmlns:dc="http://purl.org/dc/elements/1.1/" xmlns:xl="http://www.w3.org/1999/xlink" viewBox="52 46 103 104" width="103" height="104">
  <defs/>
  <metadata> Produced by OmniGraffle 7.18.3\n2021-12-05 03:35:13 +0000</metadata>
  <g id="Canvas_1" stroke-dasharray="none" fill-opacity="1" stroke-opacity="1" fill="none" stroke="none">
    <title>Canvas 1</title>
    <g id="Canvas_1_Layer_1">
      <title>Layer 1</title>
      <g id="Group_367">
        <g id="Graphic_373">
          <path d="M 135.27613 115.946 C 133.83647 115.84343 132.49939 116.35703 131.3682 116.97465 C 130.1344 114.40377 127.56347 112.65556 124.58088 112.65556 C 123.14122 112.65556 121.80414 113.0666 120.67295 113.68421 C 120.3645 112.96402 119.85018 112.24455 119.2333 111.62769 C 117.79364 110.18803 115.9422 109.36531 113.88567 109.36531 C 112.75445 109.26273 111.72576 109.57118 110.80043 109.98221 L 110.903 94.45426 C 110.903 92.39773 110.18281 90.54633 108.7431 89.10663 C 107.30344 87.66698 105.452 86.84426 103.39547 86.84426 C 99.28243 86.94683 95.88868 90.23782 95.78547 94.35105 L 95.5796 129.82925 L 91.36317 125.61282 C 88.79228 123.04194 84.7817 122.63096 81.69646 124.68747 C 79.94835 125.92127 78.7146 127.77271 78.40536 129.93189 C 78.09691 132.0918 78.71381 134.25097 80.05089 135.89634 L 88.17452 145.56304 C 88.99729 146.4884 90.33443 146.5917 91.25976 145.8715 C 92.18512 145.04872 92.28841 143.71159 91.56821 142.78625 L 83.54706 133.11954 C 82.93015 132.39935 82.72428 131.5773 82.82686 130.65131 C 82.92944 129.72596 83.44376 129.00578 84.16394 128.4914 C 85.39774 127.66863 87.1458 127.7712 88.17452 128.90243 L 94.0365 134.76441 C 95.06515 135.79306 96.50473 136.1015 97.84123 135.48461 C 99.1783 134.97029 100.00114 133.7365 100.00114 132.2969 L 100.20701 94.55632 C 100.20701 92.80821 101.64667 91.47108 103.29225 91.47108 C 104.11503 91.47108 104.93778 91.77953 105.45216 92.39643 C 105.96863 93.01405 106.58554 93.73424 106.58554 94.55634 L 106.48296 116.97445 L 106.48296 117.07702 L 106.48296 120.57324 C 106.48296 121.80705 107.51161 122.83562 108.64287 122.83562 C 109.87667 122.83562 110.80278 121.80697 110.90525 120.67571 L 110.90525 117.0761 C 110.90525 116.25333 111.2137 115.53387 111.8306 114.9162 C 112.4475 114.2993 113.16768 113.99084 113.99051 113.99084 C 114.81334 113.99084 115.63604 114.2993 116.15042 114.9162 C 116.76732 115.5331 117.07577 116.25328 117.07577 117.0761 L 117.07577 123.86342 C 117.07577 125.09723 118.10442 126.1258 119.23568 126.1258 C 120.46949 126.1258 121.3956 125.09715 121.49806 123.96589 L 121.49806 120.46967 C 121.49806 118.72156 122.93772 117.38443 124.5833 117.38443 C 126.33141 117.38443 127.66855 118.82409 127.66855 120.46967 L 127.66855 123.55492 L 127.66855 123.6575 L 127.66855 127.15371 C 127.66855 128.38752 128.6972 129.41609 129.82846 129.41609 C 131.06226 129.41609 131.98837 128.38744 132.09084 127.25618 L 132.09084 123.96508 L 132.09084 123.75921 C 132.09084 122.0111 133.5305 120.67396 135.17608 120.67396 C 136.92419 120.67396 138.26133 122.11362 138.26133 123.75921 L 138.15875 144.73762 C 138.15875 145.97143 139.1874 147 140.31866 147 C 141.55246 147 142.47857 145.97135 142.58104 144.84009 L 142.78405 123.55684 C 142.88662 119.4438 139.49295 115.94684 135.27651 115.94684 Z" fill="#666"/>
        </g>
        <g id="Graphic_372">
          <path d="M 83.85845 96.51012 C 85.09225 96.51012 86.12082 95.48147 86.12082 94.24774 C 86.12082 93.01401 85.09218 91.98536 83.85845 91.98536 L 72.44372 91.98536 C 71.51837 89.00351 68.74165 86.8436 65.55375 86.8436 C 61.54317 86.8436 58.252075 90.13469 58.252075 94.14527 C 58.252075 98.15585 61.54317 101.44695 65.55375 101.44695 C 68.84485 101.44695 71.5182 99.28704 72.44372 96.30518 L 83.85845 96.30518 Z M 65.55375 97.12702 C 64.011516 97.12702 62.67436 95.78994 62.67436 94.24763 C 62.67436 92.7054 64.01144 91.36824 65.55375 91.36824 C 67.09606 91.36824 68.43314 92.70532 68.43314 94.24763 C 68.43314 95.89316 67.09678 97.12702 65.55375 97.12702 Z" fill="#666"/>
        </g>
        <g id="Graphic_371">
          <path d="M 141.44625 86.94643 C 138.15515 86.94643 135.4818 89.10634 134.55628 92.0882 L 123.14155 92.0882 C 121.90775 92.0882 120.87918 93.11685 120.87918 94.35058 C 120.87918 95.58431 121.90782 96.61295 123.14155 96.61295 L 134.55628 96.61295 C 135.48163 99.59481 138.25835 101.75472 141.44625 101.75472 C 145.45683 101.75472 148.74793 98.46362 148.74793 94.45305 C 148.7472 90.44247 145.45683 86.94625 141.44625 86.94625 Z M 141.44625 97.12676 C 139.90401 97.12676 138.56686 95.78968 138.56686 94.24737 C 138.56686 92.70514 139.90394 91.36798 141.44625 91.36798 C 142.98856 91.36798 144.32564 92.70506 144.32564 94.24737 C 144.32564 95.8929 143.09183 97.12676 141.44625 97.12676 Z" fill="#666"/>
        </g>
        <g id="Graphic_370">
          <path d="M 101.23762 63.19165 L 101.23762 74.60637 C 101.23762 75.84018 102.26627 76.86875 103.5 76.86875 C 104.73373 76.86875 105.76238 75.8401 105.76238 74.60637 L 105.76238 63.19165 C 108.74424 62.266294 110.90415 59.489574 110.90415 56.30168 C 110.90415 52.2911 107.61305 49 103.60247 49 C 99.59189 49 96.30079 52.2911 96.30079 56.30168 C 96.19821 59.59204 98.35805 62.26558 101.23744 63.19165 Z M 103.5 53.421737 C 105.04224 53.421737 106.37939 54.75882 106.37939 56.30113 C 106.37939 57.84336 105.04231 59.18052 103.5 59.18052 C 101.95769 59.18052 100.62061 57.84344 100.62061 56.30113 C 100.62061 54.75889 101.95769 53.421737 103.5 53.421737 Z" fill="#666"/>
        </g>
        <g id="Graphic_369">
          <path d="M 76.65997 74.70902 C 77.893775 74.70902 79.025 74.40057 79.95107 73.88625 L 88.0747 82.00987 C 88.48573 82.4209 89.10334 82.62678 89.61693 82.62678 C 90.23383 82.62678 90.74816 82.4209 91.15917 82.00987 C 91.98194 81.1871 91.98194 79.7475 91.15917 78.92463 L 83.03554 70.801004 C 83.54987 69.77236 83.85832 68.641094 83.85832 67.509906 C 83.85832 63.49933 80.56722 60.20823 76.55664 60.20823 C 72.54606 60.20823 69.25496 63.49933 69.25496 67.509906 C 69.25568 71.52122 72.64926 74.70893 76.65984 74.70893 Z M 76.65997 64.52814 C 78.20221 64.52814 79.53936 65.86522 79.53936 67.40753 C 79.53936 68.949766 78.20228 70.28692 76.65997 70.28692 C 75.117735 70.28692 73.78058 68.94984 73.78058 67.40753 C 73.78058 65.86529 75.11766 64.52814 76.65997 64.52814 Z" fill="#666"/>
        </g>
        <g id="Graphic_368">
          <path d="M 117.38277 82.62735 C 117.99968 82.62735 118.514 82.42147 118.92501 82.01044 L 127.04864 73.88682 C 128.07728 74.40114 129.20855 74.70959 130.33973 74.70959 C 134.35031 74.70959 137.64141 71.41849 137.64141 67.407915 C 137.64141 63.397336 134.35031 60.10624 130.33973 60.10624 C 126.32916 60.10624 123.03806 63.397336 123.03806 67.407915 C 123.03806 68.64172 123.34651 69.772945 123.86083 70.69901 L 115.83967 78.821905 C 115.0169 79.64468 115.0169 81.08428 115.83967 81.90715 C 116.25142 82.42147 116.76503 82.62735 117.38263 82.62735 Z M 130.33985 64.527956 C 131.88208 64.527956 133.21924 65.865036 133.21924 67.407346 C 133.21924 68.94958 131.88216 70.286736 130.33985 70.286736 C 128.79761 70.286736 127.46046 68.949656 127.46046 67.407346 C 127.46046 65.86511 128.79754 64.527956 130.33985 64.527956 Z" fill="#666"/>
        </g>
      </g>
    </g>
  </g>
</svg>
