<?xml version="1.0" encoding="UTF-8" standalone="no"?>
<!DOCTYPE svg PUBLIC "-//W3C//DTD SVG 1.1//EN" "http://www.w3.org/Graphics/SVG/1.1/DTD/svg11.dtd">
<svg version="1.1" xmlns="http://www.w3.org/2000/svg" xmlns:dc="http://purl.org/dc/elements/1.1/" xmlns:xl="http://www.w3.org/1999/xlink" viewBox="52 46 103 104" width="103" height="104">
  <defs/>
  <metadata> Produced by OmniGraffle 7.18.3\n2021-12-05 03:33:31 +0000</metadata>
  <g id="Canvas_1" stroke-dasharray="none" fill-opacity="1" stroke-opacity="1" fill="none" stroke="none">
    <title>Canvas 1</title>
    <g id="Canvas_1_Layer_1">
      <title>Layer 1</title>
      <g id="Group_2">
        <title>Canvas_1</title>
        <g id="Group_3">
          <title>Canvas_1_Layer_1</title>
          <g id="Group_6">
            <title>Graphic_361</title>
            <g id="Graphic_7">
              <path d="M 142.46271 50.6618 C 148.18667 54.523566 149.69766 62.294366 145.8359 68.01913 C 141.97494 73.74308 134.20334 75.25408 128.47938 71.39231 C 122.75462 67.53055 121.24443 59.75975 125.10559 54.03579 C 128.96735 48.31103 136.73815 46.80084 142.46291 50.662" fill="#666"/>
            </g>
          </g>
          <g id="Group_4">
            <title>Graphic_360</title>
            <g id="Graphic_5">
              <path d="M 147.08903 103.66146 L 137.85209 96.90261 C 137.28872 96.56475 137.06322 96.00139 136.95086 95.32568 C 135.37393 81.809 134.24729 78.2041 132.44564 76.51469 L 124.44775 82.82237 L 126.47488 76.74017 L 126.58723 76.74017 C 127.03745 76.96567 127.71396 76.85253 127.93868 76.40231 L 128.72755 75.05086 C 128.95305 74.60064 128.8399 73.92413 128.38969 73.69942 L 126.58725 72.57269 C 126.13703 72.347185 125.46053 72.46033 125.2358 72.91055 L 124.44694 74.262 C 124.22144 74.71222 124.33458 75.388725 124.7848 75.61344 L 124.89716 75.61344 L 120.50417 80.23191 L 122.41896 70.09465 C 120.72967 69.41893 117.23709 69.08107 104.5093 69.64443 C 101.12987 69.75679 97.8637 70.88352 95.04768 72.79837 L 84.45925 80.11961 C 83.89589 80.457475 83.55803 80.90848 83.22017 81.3587 C 83.10781 81.3587 82.8823 81.24634 82.76995 81.1332 C 81.86872 80.9077 80.85515 81.1332 80.06637 81.69656 L 77.13791 83.72369 L 75.11078 80.79524 C 74.0972 79.33067 72.06928 78.880445 70.60556 80.00637 L 59.003566 88.00426 C 57.538995 89.01784 57.088775 91.04576 58.2147 92.50948 L 70.26765 110.08123 C 71.28124 111.5458 73.30915 111.99602 74.77288 110.8701 L 86.37487 102.87221 C 87.83944 101.85862 88.28966 99.83071 87.16374 98.36698 L 85.13661 95.43852 L 88.06506 93.4114 C 89.19179 92.62253 89.75435 91.27102 89.52963 90.03197 C 89.97985 89.91962 90.43086 89.69411 90.88108 89.35625 L 101.4695 82.14725 C 102.59623 81.47152 103.83536 81.02052 105.07441 80.90816 L 106.42586 80.90816 L 96.40084 92.62239 C 94.48604 94.875 93.47238 97.9165 93.8103 100.958 C 94.14816 103.77402 95.49959 106.36455 97.63988 108.167 L 72.74629 136.77572 C 70.38044 139.4793 70.71916 143.53457 73.42202 145.89942 C 74.6611 146.913 76.12559 147.47635 77.58952 147.47635 C 79.39195 147.47635 81.19442 146.68748 82.54591 145.22374 L 107.66478 115.93716 L 113.74698 120.66807 L 108.67835 139.36662 C 107.77712 142.85828 109.80508 146.35014 113.18357 147.25127 C 113.74694 147.47677 114.3103 147.47677 114.87286 147.47677 C 117.68888 147.47677 120.27941 145.56198 121.0683 142.74586 L 126.47485 122.80826 C 127.71394 118.52771 126.13699 113.91005 122.64527 111.20627 L 116.11211 106.13764 L 125.57373 95.09905 C 125.68608 95.54927 125.68608 96.00028 125.79923 96.56362 C 126.24945 100.28077 128.16509 103.66019 131.20578 105.9128 L 140.44272 112.67164 C 141.4563 113.46051 142.5831 113.79837 143.82214 113.79837 C 145.51143 113.79837 147.20156 113.0095 148.32737 111.54576 C 150.13058 108.95442 149.68038 105.46196 147.08987 103.66031 Z M 82.88384 92.39739 L 79.054255 86.76535 L 81.98271 84.73822 C 81.98271 85.86495 82.32057 86.8786 82.9963 87.89216 C 83.67202 88.90573 84.57323 89.58145 85.58683 89.91929 L 85.92469 90.36951 Z" fill="#666"/>
            </g>
          </g>
        </g>
      </g>
    </g>
  </g>
</svg>
